{"title":"The.D.the.Details.2013 BRRip XViD juggs","uid":8222661,"size":745456167,"categoryP":"video","categoryS":"movies","magnet":"?xt=urn:btih:86dde1ea8907b7ecea736d90e0fdfc09ed7c6b2b&amp;dn=The.D.the.Details.2013+BRRip+XViD+juggs&amp;tr=udp%3A%2F%2Ftracker.openbittorrent.com%3A80&amp;tr=udp%3A%2F%2Fopen.demonii.com%3A1337&amp;tr=udp%3A%2F%2Ftracker.coppersurfer.tk%3A6969&amp;tr=udp%3A%2F%2Fexodus.desync.com%3A6969","seeders":4,"leechers":0,"uploader":"juggs99","files":3,"time":1362510232,"description":"Source : LCHD\n &lt;a href=&quot;\nhttp://www.imdb.com/title/tt2137359/&quot; rel=&quot;nofollow&quot; target=&quot;_NEW&quot;&gt;\nhttp://www.imdb.com/title/tt2137359/&lt;/a&gt;\n\n\nFormat                                   : AVI\nFormat/Info                              : Audio Video Interleave\nFile size                                : 701 MiB\nDuration                                 : 1h 40mn\nOverall bit rate                         : 978 Kbps\nWriting library                          : VirtualDub build 32842/release\n\nVideo\nID                                       : 0\nFormat                                   : MPEG-4 Visual\nFormat profile                           : Advanced Simple@L5\nFormat settings, BVOP                    : 4\nFormat settings, QPel                    : No\nFormat settings, GMC                     : No warppoints\nFormat settings, Matrix                  : Default (H.263)\nMuxing mode                              : Packed bitstream\nCodec ID                                 : XVID\nCodec ID/Hint                            : XviD\nDuration                                 : 1h 40mn\nBit rate                                 : 840 Kbps\nWidth                                    : 640 pixels\nHeight                                   : 256 pixels\nDisplay aspect ratio                     : 2.500\nFrame rate                               : 23.976 fps\nColor space                              : YUV\nChroma subsampling                       : 4:2:0\nBit depth                                : 8 bits\nScan type                                : Progressive\nCompression mode                         : Lossy\nBits/(Pixel*Frame)                       : 0.214\nStream size                              : 603 MiB (86%)\nWriting library                          : XviD 64\n\nAudio\nID                                       : 1\nFormat                                   : MPEG Audio\nFormat version                           : Version 1\nFormat profile                           : Layer 3\nCodec ID                                 : 55\nCodec ID/Hint                            : MP3\nDuration                                 : 1h 40mn\nBit rate mode                            : Constant\nBit rate                                 : 128 Kbps\nChannel(s)                               : 2 channels\nSampling rate                            : 44.1 KHz\nCompression mode                         : Lossy\nStream size                              : 91.8 MiB (13%)\nAlignment                                : Split accross interleaves\nInterleave, duration                     : 42 ms (1.00 video frame)\nInterleave, preload duration             : 500 ms\nWriting library                          : LAME3.99r\nEncoding settings                        : -m s -V 4 -q 3 -lowpass 17 -b 128\n\n\nPlot\n7 minutes from now in Nogales, Arizona. Thomas Conrad's life will forever change when he gets caught up in a Mexican cartels poetic game of drug mule chess. \n\n &lt;a href=&quot;\nhttp://www.shotpix.com/images/48516143988196178918.png&quot; rel=&quot;nofollow&quot; target=&quot;_NEW&quot;&gt;\nhttp://www.shotpix.com/images/48516143988196178918.png&lt;/a&gt; &lt;a href=&quot;\nhttp://www.shotpix.com/images/19990076910067538041.png&quot; rel=&quot;nofollow&quot; target=&quot;_NEW&quot;&gt;\nhttp://www.shotpix.com/images/19990076910067538041.png&lt;/a&gt; &lt;a href=&quot;\nhttp://www.shotpix.com/images/75312256020705817471.png&quot; rel=&quot;nofollow&quot; target=&quot;_NEW&quot;&gt;\nhttp://www.shotpix.com/images/75312256020705817471.png&lt;/a&gt; &lt;a href=&quot;\nhttp://www.shotpix.com/images/00285840257594748871.png&quot; rel=&quot;nofollow&quot; target=&quot;_NEW&quot;&gt;\nhttp://www.shotpix.com/images/00285840257594748871.png&lt;/a&gt;","torrent":{"xt":"urn:btih:86dde1ea8907b7ecea736d90e0fdfc09ed7c6b2b","amp;dn":"The.D.the.Details.2013+BRRip+XViD+juggs","amp;tr":["udp%3A%2F%2Ftracker.openbittorrent.com%3A80","udp%3A%2F%2Fopen.demonii.com%3A1337","udp%3A%2F%2Ftracker.coppersurfer.tk%3A6969","udp%3A%2F%2Fexodus.desync.com%3A6969"],"infoHash":"86dde1ea8907b7ecea736d90e0fdfc09ed7c6b2b","infoHashBuffer":{"type":"Buffer","data":[134,221,225,234,137,7,183,236,234,115,109,144,224,253,252,9,237,124,107,43]},"announce":[],"urlList":[]}}